<?xml version="1.0" standalone="no"?>
<!DOCTYPE svg PUBLIC "-//W3C//DTD SVG 20010904//EN"
 "http://www.w3.org/TR/2001/REC-SVG-20010904/DTD/svg10.dtd">
<svg version="1.0" xmlns="http://www.w3.org/2000/svg"
 width="512.000000pt" height="512.000000pt" viewBox="0 0 512.000000 512.000000"
 preserveAspectRatio="xMidYMid meet">
<metadata>
Created by potrace 1.14, written by Peter Selinger 2001-2017
</metadata>
<g transform="translate(0.000000,512.000000) scale(0.100000,-0.100000)"
fill="#000000" stroke="none">
<path d="M1935 5109 c-347 -32 -708 -162 -1000 -359 -423 -286 -732 -724 -866
-1230 -7 -25 -14 -49 -15 -55 -8 -32 -36 -199 -42 -250 -13 -124 -6 -451 13
-545 2 -13 7 -42 10 -65 4 -22 19 -89 35 -150 132 -505 427 -928 857 -1228 29
-21 55 -37 57 -37 3 0 22 -12 43 -26 114 -78 439 -217 559 -238 13 -3 28 -7
32 -10 5 -3 47 -12 93 -20 46 -9 93 -17 104 -20 93 -19 403 -28 513 -14 354
42 622 129 895 290 49 30 71 38 80 30 7 -6 246 -245 532 -531 286 -286 544
-538 573 -560 73 -55 151 -82 244 -86 136 -6 262 46 349 143 83 93 119 192
113 317 -3 84 -6 96 -41 175 -28 65 -113 156 -619 660 -278 278 -510 511 -516
517 -7 9 3 35 36 91 224 383 319 803 283 1257 -7 89 -9 106 -22 187 -11 68
-12 69 -41 179 -49 186 -136 393 -231 552 l-36 59 83 83 82 82 50 -19 c78 -29
145 -31 243 -5 65 18 171 120 196 188 l16 44 261 0 262 0 0 87 0 86 -212 0
c-323 0 -318 0 -318 16 0 26 -44 98 -85 139 -130 131 -343 130 -474 -1 -95
-96 -126 -230 -81 -353 l22 -62 -71 -71 -72 -71 -25 30 c-149 174 -257 278
-407 390 -48 36 -90 65 -93 65 -3 0 -25 13 -48 29 -109 75 -327 174 -494 225
-134 41 -157 46 -309 71 -18 3 -48 8 -65 11 -53 9 -366 11 -453 3z m2414 -360
c115 -64 115 -235 1 -294 -123 -63 -259 25 -248 161 10 123 141 193 247 133z"/>
</g>
</svg>
